<!-- Generated by IcoMoon.io -->
<svg version="1.1" xmlns="http://www.w3.org/2000/svg" width="32" height="32" viewBox="0 0 32 32">
<title>caixa</title>
<path d="M31.989 25.444c0-0.005 0-0.011 0-0.017 0-0.014-0.001-0.027-0.002-0.040l0 0.002-2.476-10.896 1.979-9.895c0-0.007 0.001-0.016 0.001-0.024s-0-0.017-0.001-0.026l0 0.001c0.004-0.013 0.007-0.030 0.010-0.047l0-0.003v-2c0-0.276-0.224-0.5-0.5-0.5v0h-30c-0.276 0-0.5 0.224-0.5 0.5v0 2c0.003 0.020 0.006 0.036 0.011 0.053l-0.001-0.003c-0 0.007-0.001 0.016-0.001 0.024s0 0.017 0.001 0.026l-0-0.001 1.979 9.895-2.476 10.896c-0.001 0.012-0.002 0.025-0.002 0.039 0 0.006 0 0.012 0 0.018l-0-0.001c-0.004 0.015-0.008 0.034-0.011 0.053l-0 0.002v4c0 0.276 0.224 0.5 0.5 0.5v0h31c0.276 0 0.5-0.224 0.5-0.5v0-4c-0.003-0.022-0.007-0.040-0.012-0.059l0.001 0.003zM3.399 15h5.146c-2.617 0.744-4.682 1.873-5.882 3.239zM28.601 15l0.736 3.239c-1.201-1.366-3.265-2.495-5.882-3.239zM5.976 25c-2.148-1.066-3.476-2.462-3.476-3.967 0-3.252 6.182-6 13.5-6s13.5 2.748 13.5 6c0 1.505-1.328 2.901-3.476 3.967h-8.024c-0.276 0-0.5 0.224-0.5 0.5v0c0 0.828-0.672 1.5-1.5 1.5s-1.5-0.672-1.5-1.5v0c0-0.276-0.224-0.5-0.5-0.5v0zM3.984 25h-2.858l0.609-2.681c0.481 1.116 1.255 2.029 2.226 2.667l0.023 0.014zM30.264 22.319l0.609 2.681h-2.858c0.993-0.652 1.767-1.565 2.234-2.642l0.015-0.039zM1.5 3h29v1h-12.5c-0.276 0-0.5 0.224-0.5 0.5v0c0 0.828-0.672 1.5-1.5 1.5s-1.5-0.672-1.5-1.5v0c0-0.276-0.224-0.5-0.5-0.5v0h-12.5zM1.61 5h11.94c0.241 1.149 1.246 2 2.45 2s2.209-0.851 2.447-1.984l0.003-0.016h11.94l-1.8 9h-25.18zM31 29h-30v-3h12.55c0.241 1.149 1.246 2 2.45 2s2.209-0.851 2.447-1.984l0.003-0.016h12.55zM14 23.5c0 0.841 0.878 1.5 2 1.5s2-0.659 2-1.5-0.878-1.5-2-1.5-2 0.659-2 1.5zM17 23.5c0 0.204-0.39 0.5-1 0.5s-1-0.296-1-0.5 0.39-0.5 1-0.5 1 0.296 1 0.5zM10 21.5c-1.122 0-2 0.659-2 1.5s0.878 1.5 2 1.5 2-0.659 2-1.5-0.878-1.5-2-1.5zM10 23.5c-0.61 0-1-0.296-1-0.5s0.39-0.5 1-0.5 1 0.296 1 0.5-0.39 0.5-1 0.5zM19.5 23c0 0.841 0.878 1.5 2 1.5s2-0.659 2-1.5-0.878-1.5-2-1.5-2 0.659-2 1.5zM22.5 23c0 0.204-0.39 0.5-1 0.5s-1-0.296-1-0.5 0.39-0.5 1-0.5 1 0.296 1 0.5zM16 18.5c1.122 0 2-0.659 2-1.5s-0.878-1.5-2-1.5-2 0.659-2 1.5 0.878 1.5 2 1.5zM16 16.5c0.61 0 1 0.296 1 0.5s-0.39 0.5-1 0.5-1-0.296-1-0.5 0.39-0.5 1-0.5zM10.5 17c-1.122 0-2 0.659-2 1.5s0.878 1.5 2 1.5 2-0.659 2-1.5-0.878-1.5-2-1.5zM10.5 19c-0.61 0-1-0.296-1-0.5s0.39-0.5 1-0.5 1 0.296 1 0.5-0.39 0.5-1 0.5zM21 19.5c1.122 0 2-0.659 2-1.5s-0.878-1.5-2-1.5-2 0.659-2 1.5 0.878 1.5 2 1.5zM21 17.5c0.61 0 1 0.296 1 0.5s-0.39 0.5-1 0.5-1-0.296-1-0.5 0.39-0.5 1-0.5zM6 19c-1.122 0-2 0.659-2 1.5s0.878 1.5 2 1.5 2-0.659 2-1.5-0.878-1.5-2-1.5zM6 21c-0.61 0-1-0.296-1-0.5s0.39-0.5 1-0.5 1 0.296 1 0.5-0.39 0.5-1 0.5zM26 22c1.122 0 2-0.659 2-1.5s-0.878-1.5-2-1.5-2 0.659-2 1.5 0.878 1.5 2 1.5zM26 20c0.61 0 1 0.296 1 0.5s-0.39 0.5-1 0.5-1-0.296-1-0.5 0.39-0.5 1-0.5zM14 21c-0 0-0.001 0-0.001 0-0.276 0-0.5-0.224-0.5-0.5 0-0.22 0.142-0.407 0.339-0.474l0.004-0.001 1.5-0.5c0.047-0.016 0.102-0.026 0.158-0.026 0.276 0 0.5 0.224 0.5 0.5 0 0.22-0.142 0.406-0.338 0.473l-0.004 0.001-1.5 0.5c-0.047 0.016-0.102 0.026-0.158 0.026v0zM18.026 21.158c-0.016-0.047-0.026-0.102-0.026-0.158 0-0.22 0.142-0.406 0.338-0.473l0.004-0.001 1.5-0.5c0.047-0.016 0.102-0.026 0.158-0.026 0.276 0 0.5 0.224 0.5 0.5 0 0.22-0.142 0.406-0.338 0.473l-0.004 0.001-1.5 0.5c-0.047 0.016-0.102 0.026-0.159 0.026-0.22 0-0.406-0.142-0.473-0.339l-0.001-0.004z"></path>
</svg>
