<!-- Generated by IcoMoon.io -->
<svg version="1.1" xmlns="http://www.w3.org/2000/svg" width="32" height="32" viewBox="0 0 32 32">
<title>instagram_online_internet_icon</title>
<path fill="#ba30ce" d="M29.633 23.025c0 3.794-3.075 6.869-6.869 6.869h-14.051c-3.794 0-6.869-3.075-6.869-6.869v-14.051c0-3.794 3.075-6.869 6.869-6.869h14.051c3.794 0 6.869 3.075 6.869 6.869v14.051z"></path>
<path fill="#ff0da9" d="M22.764 2.106h-14.051c-3.794 0-6.869 3.075-6.869 6.869v7.025h27.789v-7.025c0-3.794-3.075-6.869-6.869-6.869z"></path>
<path fill="none" stroke="#33363a" stroke-linejoin="round" stroke-linecap="round" stroke-miterlimit="10" stroke-width="0.6857" d="M29.633 23.025c0 3.794-3.075 6.869-6.869 6.869h-14.051c-3.794 0-6.869-3.075-6.869-6.869v-14.051c0-3.794 3.075-6.869 6.869-6.869h14.051c3.794 0 6.869 3.075 6.869 6.869v14.051z"></path>
<path fill="#ba30ce" d="M21.093 5.409c2.892 0 5.236 2.344 5.236 5.236v10.71c0 2.892-2.344 5.236-5.236 5.236h-10.71c-2.892 0-5.236-2.344-5.236-5.236v-10.71c0-2.892 2.344-5.236 5.236-5.236h10.71z"></path>
<path fill="#ff0da9" d="M5.148 10.645v10.71c0 2.892 2.344 5.236 5.236 5.236h5.355v-21.182h-5.355c-2.892 0-5.236 2.344-5.236 5.236z"></path>
<path fill="none" stroke="#33363a" stroke-linejoin="round" stroke-linecap="round" stroke-miterlimit="10" stroke-width="0.6857" d="M21.093 5.409c2.892 0 5.236 2.344 5.236 5.236v10.71c0 2.892-2.344 5.236-5.236 5.236h-10.71c-2.892 0-5.236-2.344-5.236-5.236v-10.71c0-2.892 2.344-5.236 5.236-5.236h10.71z"></path>
<path fill="#fff" d="M15.738 9.707c3.475 0 6.294 2.817 6.294 6.293s-2.818 6.293-6.294 6.293-6.294-2.817-6.294-6.293c0-3.476 2.818-6.293 6.294-6.293z"></path>
<path fill="#c7d5e0" d="M9.445 16c0-3.476 2.818-6.293 6.294-6.293s6.294 2.817 6.294 6.293z"></path>
<path fill="none" stroke="#33363a" stroke-linejoin="round" stroke-linecap="round" stroke-miterlimit="10" stroke-width="0.6857" d="M15.738 9.707c3.475 0 6.294 2.817 6.294 6.293s-2.818 6.293-6.294 6.293-6.294-2.817-6.294-6.293c0-3.476 2.818-6.293 6.294-6.293z"></path>
<path fill="#fff" d="M19.936 16c0 2.319-1.88 4.198-4.198 4.198s-4.198-1.88-4.198-4.198c0-2.319 1.88-4.198 4.198-4.198s4.198 1.88 4.198 4.198z"></path>
<path fill="#c7d5e0" d="M15.739 11.801c2.319 0 4.198 1.88 4.198 4.199s-1.879 4.199-4.198 4.199z"></path>
<path fill="none" stroke="#33363a" stroke-linejoin="round" stroke-linecap="round" stroke-miterlimit="10" stroke-width="0.6857" d="M19.936 16c0 2.319-1.88 4.198-4.198 4.198s-4.198-1.88-4.198-4.198c0-2.319 1.88-4.198 4.198-4.198s4.198 1.88 4.198 4.198z"></path>
<path fill="#c7d5e0" d="M23.36 9.616c0 0.522-0.423 0.946-0.946 0.946s-0.946-0.423-0.946-0.946c0-0.522 0.423-0.946 0.946-0.946s0.946 0.423 0.946 0.946z"></path>
<path fill="#fff" d="M22.415 10.562c-0.523 0-0.946-0.424-0.946-0.946s0.424-0.946 0.946-0.946z"></path>
<path fill="none" stroke="#33363a" stroke-linejoin="round" stroke-linecap="round" stroke-miterlimit="10" stroke-width="0.6857" d="M23.36 9.616c0 0.522-0.423 0.946-0.946 0.946s-0.946-0.423-0.946-0.946c0-0.522 0.423-0.946 0.946-0.946s0.946 0.423 0.946 0.946z"></path>
<path fill="none" stroke="#33363a" stroke-linejoin="round" stroke-linecap="round" stroke-miterlimit="10" stroke-width="0.6857" d="M30.156 29.894h-1.347"></path>
<path fill="none" stroke="#33363a" stroke-linejoin="round" stroke-linecap="round" stroke-miterlimit="10" stroke-width="0.6857" d="M26.159 29.894h-11.681"></path>
<path fill="none" stroke="#33363a" stroke-linejoin="round" stroke-linecap="round" stroke-miterlimit="10" stroke-width="0.6857" d="M27.597 29.894h-0.251"></path>
</svg>
