<!-- Generated by IcoMoon.io -->
<svg version="1.1" xmlns="http://www.w3.org/2000/svg" width="32" height="32" viewBox="0 0 32 32">
<title>pizza-2-</title>
<path fill="#f69b77" d="M9.587 23.444c-1.598 0-2.898 1.3-2.898 2.897 0 1.598 1.3 2.898 2.898 2.898s2.898-1.3 2.898-2.898c0-1.597-1.299-2.897-2.898-2.897z"></path>
<path fill="#dabe92" d="M13.676 1.279l-1.313 3.122c3.945 0.807 12.224 3.859 15.18 15.254l3.148-1.324c-2.916-15.497-15.299-16.929-17.015-17.053z"></path>
<path fill="#fae58f" d="M12.133 4.95l-10.824 25.739 5.465-2.298c-0.42-0.576-0.672-1.282-0.672-2.049 0-1.922 1.563-3.484 3.485-3.484 1.725 0 3.156 1.26 3.433 2.907l13.976-5.878c-2.893-11.286-11.103-14.195-14.864-14.937z"></path>
<path fill="#434b56" d="M27.081 21.957c-2.963-16.425-16.633-16.882-16.772-16.884l0.031-1.586c0.155 0.003 3.851 0.101 7.972 2.398 3.794 2.116 8.667 6.573 10.33 15.791l-1.561 0.281z"></path>
<path fill="#acd263" d="M15.999 19.42l2.892-5.009 2.891 5.009z"></path>
<path fill="#434b56" d="M21.781 20.212h-5.782c-0.283 0-0.545-0.151-0.686-0.397s-0.142-0.548 0-0.793l2.891-5.007c0.141-0.246 0.403-0.397 0.686-0.397v0c0.283 0 0.545 0.151 0.687 0.397l2.891 5.007c0.142 0.245 0.142 0.548 0 0.793s-0.403 0.397-0.686 0.397zM17.373 18.626h3.035l-1.517-2.628-1.517 2.628z"></path>
<path fill="#434b56" d="M9.697 30.204c-2.197 0-3.984-1.788-3.984-3.986s1.787-3.983 3.984-3.983c2.197 0 3.984 1.787 3.984 3.983s-1.787 3.986-3.984 3.986zM9.697 23.821c-1.323 0-2.398 1.076-2.398 2.398 0 1.323 1.076 2.399 2.398 2.399s2.398-1.076 2.398-2.399c0-1.321-1.076-2.398-2.398-2.398z"></path>
<path fill="#f69b77" d="M15.999 11.492c0 0.859-0.695 1.555-1.554 1.555-0.86 0-1.557-0.697-1.557-1.555s0.697-1.555 1.557-1.555c0.858 0 1.554 0.696 1.554 1.555z"></path>
<path fill="#434b56" d="M14.445 13.84c-1.296 0-2.35-1.053-2.35-2.348s1.054-2.348 2.35-2.348c1.294 0 2.347 1.054 2.347 2.348s-1.052 2.348-2.347 2.348zM14.445 10.731c-0.421 0-0.763 0.341-0.763 0.762s0.342 0.762 0.763 0.762c0.42 0 0.761-0.341 0.761-0.762s-0.342-0.762-0.761-0.762z"></path>
<path fill="#434b56" d="M9.805 18.709c-0.713 0-1.293-0.58-1.293-1.294s0.58-1.294 1.293-1.294 1.293 0.58 1.293 1.294c0 0.714-0.58 1.294-1.293 1.294zM9.805 17.123c-0.162 0-0.293 0.131-0.293 0.293s0.131 0.291 0.293 0.291 0.293-0.13 0.293-0.291c0-0.161-0.131-0.293-0.293-0.293z"></path>
<path fill="#434b56" d="M0.868 31.909c-0.206 0-0.409-0.081-0.561-0.232-0.228-0.228-0.296-0.571-0.171-0.868l12.727-30.264c0.124-0.294 0.412-0.486 0.731-0.486 0.005 0 0.010 0 0.016 0 0.155 0.004 3.851 0.101 7.972 2.399 3.794 2.116 8.667 6.573 10.33 15.79 0.066 0.365-0.131 0.727-0.473 0.872l-18.252 7.676-0.615-1.462 17.659-7.426c-2.828-14.010-13.611-15.958-16.127-16.222l-11.752 27.946 4.699-1.977 0.615 1.463-6.491 2.73c-0.099 0.041-0.204 0.062-0.308 0.062z"></path>
</svg>
