<!-- Generated by IcoMoon.io -->
<svg version="1.1" xmlns="http://www.w3.org/2000/svg" width="32" height="32" viewBox="0 0 32 32">
<title>pizza-3</title>
<path fill="#cf9e76" d="M30.788 13.498c-1.183-6.295-5.991-11.104-12.287-12.287-0.119-0.020-0.239-0.038-0.36-0.056-0.602-0.086-1.142 0.387-1.142 0.995v12.85h12.849c0.608 0 1.081-0.54 0.994-1.142-0.017-0.12-0.035-0.241-0.055-0.36z"></path>
<path fill="#cf9e76" d="M13.927 3.041c-7.521 0.57-13.382 7.082-12.899 14.853 0.433 6.972 6.107 12.646 13.079 13.079 7.771 0.483 14.283-5.378 14.853-12.899 0.044-0.579-0.421-1.073-1.002-1.073h-12.958v-12.958c0-0.581-0.494-1.046-1.073-1.002z"></path>
<path fill="#dfb28b" d="M15 4.5c-6.904 0-12.5 5.596-12.5 12.5s5.596 12.5 12.5 12.5 12.5-5.596 12.5-12.5h-12.5v-12.5z"></path>
<path fill="#dfb28b" d="M17 2.5v12.5h12.5c0-6.628-5.872-12.5-12.5-12.5z"></path>
<path fill="#fcd770" d="M27.956 15c-0.413-4.993-3.88-9.117-8.529-10.5l-0.926-0.236c-0.489-0.104-0.991-0.178-1.5-0.22v10.956h10.956z"></path>
<path fill="#fcd770" d="M15 17v-11c-6.075 0-11 4.925-11 11s4.925 11 11 11 11-4.925 11-11h-11z"></path>
<path fill="#fc6e51" d="M12.5 24.5c0 0.552-0.448 1-1 1s-1-0.448-1-1c0-0.552 0.448-1 1-1s1 0.448 1 1z"></path>
<path fill="#b27946" d="M21 12c0 0.552-0.448 1-1 1s-1-0.448-1-1c0-0.552 0.448-1 1-1s1 0.448 1 1z"></path>
<path fill="#fc6e51" d="M25 8.5c0 0.552-0.448 1-1 1s-1-0.448-1-1c0-0.552 0.448-1 1-1s1 0.448 1 1z"></path>
<path fill="#b27946" d="M14 18c0 0.552-0.448 1-1 1s-1-0.448-1-1c0-0.552 0.448-1 1-1s1 0.448 1 1z"></path>
<path fill="#b27946" d="M23 21c0 0.552-0.448 1-1 1s-1-0.448-1-1c0-0.552 0.448-1 1-1s1 0.448 1 1z"></path>
<path fill="#fc6e51" d="M9 17c0 0.552-0.448 1-1 1s-1-0.448-1-1c0-0.552 0.448-1 1-1s1 0.448 1 1z"></path>
<path fill="#000" d="M27.958 16.5h-12.458v-12.458c0-0.417-0.176-0.821-0.483-1.105-0.304-0.281-0.711-0.426-1.128-0.395-7.856 0.595-13.85 7.495-13.361 15.382 0.452 7.272 6.275 13.096 13.547 13.547 0.302 0.018 0.602 0.028 0.901 0.028 7.505-0 13.909-5.832 14.482-13.388 0.031-0.412-0.113-0.823-0.395-1.128-0.285-0.307-0.688-0.483-1.105-0.483zM14.137 30.473c-6.769-0.42-12.19-5.841-12.61-12.611-0.456-7.344 5.123-13.769 12.438-14.323 0.136-0.012 0.271 0.035 0.373 0.131 0.105 0.098 0.162 0.229 0.162 0.372v1.47c-6.11 0.263-11 5.314-11 11.488 0 6.341 5.159 11.5 11.5 11.5 5.379 0 9.986-3.654 11.201-8.886l-0.974-0.227c-1.111 4.776-5.317 8.113-10.228 8.113-5.79 0-10.5-4.71-10.5-10.5 0-1.546 0.344-3.009 0.947-4.332 0.061 0.050 0.124 0.109 0.2 0.185 0.273 0.273 0.646 0.646 1.353 0.646s1.081-0.373 1.354-0.646c0.245-0.245 0.366-0.354 0.646-0.354v-1c-0.707 0-1.080 0.373-1.354 0.646-0.245 0.245-0.365 0.354-0.646 0.354s-0.402-0.108-0.646-0.354c-0.12-0.12-0.263-0.26-0.444-0.379 1.737-3.006 4.918-5.068 8.59-5.242v10.975h10.983c-0.015 0.313-0.038 0.625-0.080 0.933l0.991 0.135c0.048-0.352 0.073-0.709 0.089-1.067h1.475c0.142 0 0.274 0.058 0.372 0.163 0.095 0.103 0.142 0.235 0.131 0.373-0.555 7.314-6.971 12.899-14.324 12.438z"></path>
<path fill="#000" d="M11.5 23c-0.827 0-1.5 0.673-1.5 1.5s0.673 1.5 1.5 1.5 1.5-0.673 1.5-1.5-0.673-1.5-1.5-1.5zM11.5 25c-0.276 0-0.5-0.224-0.5-0.5s0.224-0.5 0.5-0.5 0.5 0.224 0.5 0.5-0.224 0.5-0.5 0.5z"></path>
<path fill="#000" d="M18.5 12c0 0.827 0.673 1.5 1.5 1.5s1.5-0.673 1.5-1.5-0.673-1.5-1.5-1.5-1.5 0.673-1.5 1.5zM20.5 12c0 0.276-0.224 0.5-0.5 0.5s-0.5-0.224-0.5-0.5 0.224-0.5 0.5-0.5 0.5 0.224 0.5 0.5z"></path>
<path fill="#000" d="M13 16.5c-0.827 0-1.5 0.673-1.5 1.5s0.673 1.5 1.5 1.5 1.5-0.673 1.5-1.5-0.673-1.5-1.5-1.5zM13 18.5c-0.276 0-0.5-0.224-0.5-0.5s0.224-0.5 0.5-0.5 0.5 0.224 0.5 0.5-0.224 0.5-0.5 0.5z"></path>
<path fill="#000" d="M22 19.5c-0.827 0-1.5 0.673-1.5 1.5s0.673 1.5 1.5 1.5 1.5-0.673 1.5-1.5-0.673-1.5-1.5-1.5zM22 21.5c-0.276 0-0.5-0.224-0.5-0.5s0.224-0.5 0.5-0.5 0.5 0.224 0.5 0.5-0.224 0.5-0.5 0.5z"></path>
<path fill="#000" d="M8 15.5c-0.827 0-1.5 0.673-1.5 1.5s0.673 1.5 1.5 1.5 1.5-0.673 1.5-1.5-0.673-1.5-1.5-1.5zM8 17.5c-0.276 0-0.5-0.224-0.5-0.5s0.224-0.5 0.5-0.5 0.5 0.224 0.5 0.5-0.224 0.5-0.5 0.5z"></path>
<path fill="#000" d="M17.5 25c-0.281 0-0.401-0.108-0.646-0.354-0.273-0.273-0.646-0.646-1.354-0.646v1c0.281 0 0.402 0.108 0.646 0.354 0.273 0.273 0.646 0.646 1.354 0.646s1.081-0.373 1.354-0.646c0.245-0.245 0.366-0.354 0.646-0.354v-1c-0.707 0-1.081 0.373-1.354 0.646-0.245 0.245-0.366 0.354-0.646 0.354z"></path>
<path fill="#000" d="M31.34 13.787c-0.018-0.126-0.037-0.251-0.058-0.374l-0.002-0.008c-1.218-6.487-6.198-11.466-12.692-12.687-0.124-0.021-0.249-0.040-0.374-0.058-0.431-0.060-0.864 0.068-1.194 0.353-0.33 0.287-0.52 0.702-0.52 1.137v13.35h13.35c0.436 0 0.851-0.19 1.137-0.52 0.285-0.329 0.414-0.764 0.353-1.193zM30.232 14.325c-0.098 0.113-0.233 0.175-0.382 0.175h-1.452c-0.591-4.89-4.084-9.068-8.829-10.479l-0.285 0.959c1.509 0.449 2.876 1.207 4.049 2.185-0.491 0.247-0.831 0.75-0.831 1.335 0 0.827 0.673 1.5 1.5 1.5 0.55 0 1.027-0.302 1.288-0.745 1.11 1.527 1.849 3.323 2.102 5.245h-9.89v-5.787c0.046 0.041 0.092 0.086 0.146 0.141 0.273 0.273 0.646 0.646 1.354 0.646s1.081-0.373 1.354-0.646c0.245-0.245 0.366-0.354 0.646-0.354v-1c-0.707 0-1.081 0.373-1.354 0.646-0.245 0.245-0.366 0.354-0.646 0.354s-0.401-0.108-0.646-0.354c-0.2-0.2-0.455-0.452-0.854-0.574v-2.968c0.302 0.039 0.602 0.086 0.896 0.149l0.208-0.978c-0.363-0.076-0.733-0.131-1.104-0.176v-1.448c0-0.148 0.062-0.284 0.175-0.382 0.111-0.097 0.253-0.138 0.397-0.117 0.116 0.016 0.231 0.034 0.338 0.052 6.078 1.141 10.743 5.806 11.886 11.883 0.020 0.114 0.037 0.227 0.053 0.342 0.020 0.144-0.021 0.285-0.117 0.396zM24 8c0.276 0 0.5 0.224 0.5 0.5s-0.224 0.5-0.5 0.5-0.5-0.224-0.5-0.5 0.224-0.5 0.5-0.5z"></path>
<path fill="#000" d="M24.5 11.5h1v1h-1v-1z"></path>
<path fill="#000" d="M22.5 12.5h1v1h-1v-1z"></path>
<path fill="#000" d="M18.5 19h1v1h-1v-1z"></path>
<path fill="#000" d="M15.5 20.5h1v1h-1v-1z"></path>
<path fill="#000" d="M9.5 19.5h1v1h-1v-1z"></path>
<path fill="#000" d="M12.5 9h1v1h-1v-1z"></path>
<path fill="#000" d="M11 12.5h1v1h-1v-1z"></path>
<path fill="#000" d="M7 21h1v1h-1v-1z"></path>
</svg>
