<!-- Generated by IcoMoon.io -->
<svg version="1.1" xmlns="http://www.w3.org/2000/svg" width="32" height="32" viewBox="0 0 32 32">
<title>pizza-4</title>
<path fill="#fff" d="M24.5 13.227v-10.79c-0.021-1.075-0.897-1.938-1.975-1.938-0.009 0-0.018 0-0.027 0h-12.999c-0.008-0-0.016-0-0.025-0-1.078 0-1.954 0.863-1.975 1.936l-0 0.002v27.125c0.021 1.075 0.897 1.938 1.975 1.938 0.009 0 0.018-0 0.027-0h12.999c0.008 0 0.016 0 0.025 0 1.078 0 1.954-0.863 1.975-1.936l0-0.002z"></path>
<path fill="#404040" d="M22.5 32h-13c-0.008 0-0.018 0-0.028 0-1.353 0-2.453-1.087-2.472-2.436l-0-0.002v-27.125c0.020-1.35 1.119-2.438 2.472-2.438 0.010 0 0.020 0 0.029 0h12.999c0.008-0 0.018-0 0.028-0 1.353 0 2.453 1.087 2.472 2.436l0 0.002v27.125c-0.020 1.35-1.119 2.438-2.472 2.438-0.010 0-0.020-0-0.029-0h0.001zM9.5 1c-0.008-0-0.018-0-0.028-0-0.801 0-1.453 0.64-1.472 1.436l-0 0.002v27.125c0.019 0.798 0.671 1.438 1.472 1.438 0.010 0 0.020-0 0.029-0l-0.001 0h13c0.008 0 0.018 0 0.028 0 0.801 0 1.453-0.64 1.472-1.436l0-0.002v-27.125c-0.019-0.798-0.671-1.438-1.472-1.438-0.010 0-0.020 0-0.029 0l0.001-0z"></path>
<path fill="#404040" d="M18.762 3h-5.525c-0.682 0-1.238-0.643-1.238-1.43v-0.948h1v0.948c0 0.25 0.143 0.43 0.238 0.43h5.525c0.095 0 0.238-0.172 0.238-0.43v-0.792h1v0.792c0 0.787-0.555 1.43-1.238 1.43z"></path>
</svg>
